<svg xmlns="http://www.w3.org/2000/svg" viewBox="0 0 56.58 137.52"><defs><style>.cls-1,.cls-3{fill:#ccc1ba;}.cls-2{fill:#fff;}.cls-3{font-size:34px;font-family:AktivGroteskCd-Light, Aktiv Grotesk Cd;font-weight:300;}</style></defs><g id="Layer_2" data-name="Layer 2"><g id="Pin"><path id="svg_2" data-name="svg 2" class="cls-1" d="M28.29,0C12.69,0,0,18,0,40.73A61.23,61.23,0,0,0,2.07,56.2H2l.13.37.32,1,25.8,79.93L54,58l.13-.36c.1-.34.23-.68.34-1l.08-.34a57.92,57.92,0,0,0,2.07-15.44C56.58,18,43.89,0,28.29,0Zm0,53.69c-5.46,0-9.89-6.45-9.89-14.4s4.43-14.4,9.89-14.4,9.88,6.45,9.88,14.4S33.75,53.69,28.29,53.69Z"/><ellipse class="cls-2" cx="29" cy="46.1" rx="14.41" ry="25.11"/><path id="svg_2-2" data-name="svg 2" class="cls-2" d="M28.7,3.58c-13.91,0-25.23,15.91-25.23,36A53.82,53.82,0,0,0,5.31,53.2h0l.12.33.28.89L28.7,125,51.61,54.77l.11-.32c.09-.3.21-.6.3-.92l.08-.3A50.71,50.71,0,0,0,53.94,39.6C53.94,19.49,42.62,3.58,28.7,3.58Zm0,47.4c-4.87,0-8.82-5.69-8.82-12.71s3.95-12.71,8.82-12.71,8.82,5.69,8.82,12.71S33.57,51,28.7,51Z"/></g><g id="Letter"><text class="cls-3" transform="translate(16.46 52.39)">/S</text></g><g id="Lines"><path class="cls-1" d="M17.55,4A81.52,81.52,0,0,0,8.34,21.12a49.46,49.46,0,0,0-3,16.6,80.41,80.41,0,0,0,2.6,19.46c2.08,8.66,4.9,17.13,7.81,25.54,4.68,13.52,9.68,26.93,14.56,40.37.24.68,2.26.08,2-.54C28,110.44,23.47,98.37,19.19,86.22c-3.06-8.69-6.05-17.43-8.4-26.34C7.6,47.8,5.76,35.17,9.62,23,11.8,16.18,15.43,9.9,19.43,4c.49-.73-1.53-.54-1.88,0Z"/><path class="cls-1" d="M22.19,3.29C15.63,13,9.75,23.49,9.14,35.47a68.25,68.25,0,0,0,1.85,18,232.41,232.41,0,0,0,7.15,24.39c4.52,13.34,9.43,26.55,14.24,39.8.1.28,1,0,.87-.24-4.34-11.94-8.74-23.87-12.89-35.87-2.88-8.32-5.69-16.7-7.79-25.26A77.22,77.22,0,0,1,10,37.49a45.57,45.57,0,0,1,2.87-15.63C15.29,15.22,19.05,9.14,23,3.3c.21-.32-.66-.23-.81,0Z"/></g></g></svg>