<svg xmlns="http://www.w3.org/2000/svg" viewBox="0 0 42.99 43.3"><defs>
<style>.cls-1,.cls-2,.cls-3,.cls-4,.cls-5,.cls-6{fill: #dadbfee6;stroke: #dadbfee6;}.cls-1,
.cls-10,.cls-2,.cls-3,.cls-4,.cls-5,.cls-6,.cls-7,.cls-8,
.cls-9{stroke-miterlimit:10;}.cls-1{stroke-width:1.5px;}.cls-2,
.cls-8{stroke-width:0.5px;}.cls-4{stroke-width:5px;}.cls-5{stroke-width:2px;}
.cls-6{stroke-width:3px;}.cls-10,.cls-7,.cls-8,
.cls-9{fill:none;stroke:#1515fc;}.cls-7{stroke-width:0.75px;}
.cls-9{stroke-width:0.25px;}</style>
</defs>
<g id="Layer_2" data-name="Layer 2">
<g id="Layer_1-2" data-name="Layer 1">
<line class="cls-1" x1="0.15" y1="0.75" x2="42.89" y2="0.75"/>
<line class="cls-2" x1="0.13" y1="2.06" x2="42.87" y2="2.06"/>
<line class="cls-3" x1="0.2" y1="16.35" x2="42.93" y2="16.35"/>
<line class="cls-4" x1="0.13" y1="6.51" x2="42.87" y2="6.51"/>
<line class="cls-5" x1="0.2" y1="21.83" x2="42.94" y2="21.83"/>
<line class="cls-6" x1="0.2" y1="12.89" x2="42.93" y2="12.89"/>
<line class="cls-7" x1="0.08" y1="7.53" x2="42.88" y2="7.53"/>
<line class="cls-8" x1="0.19" y1="14.79" x2="42.99" y2="14.79"/><line class="cls-9" x1="0.08" y1="4.78" x2="42.88" y2="4.78"/><line class="cls-9" x1="0.14" y1="1.65" x2="42.88" y2="1.65"/><line class="cls-3" x1="0.2" y1="17.28" x2="42.93" y2="17.28"/><line class="cls-3" y1="35.27" x2="42.73" y2="35.27"/><line class="cls-5" x1="0.2" y1="23.39" x2="42.93" y2="23.39"/><line class="cls-4" x1="0.02" y1="40.8" x2="42.75" y2="40.8"/><line class="cls-6" x1="0.01" y1="31.86" x2="42.75" y2="31.86"/><line class="cls-8" x1="0.01" y1="32.48" x2="42.82" y2="32.47"/><line class="cls-9" x1="0.01" y1="30.67" x2="42.82" y2="30.67"/><line class="cls-10" x1="0.2" y1="27.64" x2="42.91" y2="27.62"/><line class="cls-10" x1="0.01" y1="38.73" x2="42.77" y2="38.77"/></g></g></svg>