<?xml version="1.0" encoding="UTF-8"?>
<svg xmlns="http://www.w3.org/2000/svg" xmlns:xlink="http://www.w3.org/1999/xlink"
 width="35px" height="35px" viewBox="0 0 40 40" version="1.1">
<g id="surface8857929">
<path style=" stroke:none;fill-rule:nonzero;fill:#dadbfee6;fill-opacity:1;" d="M 35 30.832031 C 35 33.136719 33.136719 35 30.832031 35 L 9.167969 35 C 6.867188 35 5 33.136719 5 30.832031 L 5 9.167969 C 5 6.863281 6.867188 5 9.167969 5 L 30.832031 5 C 33.136719 5 35 6.863281 35 9.167969 Z M 35 30.832031 "/>
<path style=" stroke:none;fill-rule:nonzero;fill:#152afc;fill-opacity:1;" d="M 28.640625 20.832031 L 25.832031 20.832031 L 25.832031 31.667969 L 21.667969 31.667969 L 21.667969 20.832031 L 19.167969 20.832031 L 19.167969 17.5 L 21.667969 17.5 L 21.667969 15.492188 C 21.667969 12.566406 22.882812 10.832031 26.328125 10.832031 L 29.167969 10.832031 L 29.167969 14.167969 L 27.261719 14.167969 C 25.921875 14.167969 25.832031 14.667969 25.832031 15.601562 L 25.832031 17.5 L 29.167969 17.5 Z M 28.640625 20.832031 "/>
</g>
</svg>
