<svg xmlns="http://www.w3.org/2000/svg" viewBox="0 0 277.28 318.31"><defs><style>.cls-1{fill:#dadbfe;}</style></defs><g id="Layer_2" data-name="Layer 2"><g id="Layer_1-2" data-name="Layer 1"><path class="cls-1" d="M19.35,256.47c7.81,1.47,15.66,2.75,23.57,3.46a114.2,114.2,0,0,0,20.59.18A74.88,74.88,0,0,0,82.28,256a75,75,0,0,0,17.58-9.32,110.72,110.72,0,0,0,17.35-15.6,209.27,209.27,0,0,0,18-23c7-10.16,13.37-20.72,19.46-31.42,7.62-13.39,14.78-27,21.73-40.78,8.62-17,16.9-34.23,25-51.49q14.76-31.32,29-62.87Q234.3,13,238.15,4.48c.09-.21-.62-.13-.72.09Q222.63,37.36,207.5,70c-8.36,18-16.86,35.88-25.65,53.65-7.2,14.57-14.6,29-22.42,43.3-6.26,11.41-12.78,22.68-19.86,33.6a253.92,253.92,0,0,1-18.09,24.89A129.05,129.05,0,0,1,104,243a79,79,0,0,1-17.41,10.89,70.11,70.11,0,0,1-18.27,5.29,98.9,98.9,0,0,1-20,.76,199.53,199.53,0,0,1-22.59-2.74c-2-.35-4-.71-6-1.09-.22,0-.85.31-.45.38Z"/><path class="cls-1" d="M1.75,283.18c9.17,2.75,18.33,5.56,27.57,8.06a228.8,228.8,0,0,0,25.35,5.6,111,111,0,0,0,23.81,1.27,80,80,0,0,0,23.08-4.89,89.87,89.87,0,0,0,22.75-12.82,147.63,147.63,0,0,0,23.26-22.68A286.69,286.69,0,0,0,172,223.16c9.6-15.63,18.2-31.86,26.28-48.32C208.59,153.88,218,132.5,227,111c11.21-26.88,21.7-54.06,31.81-81.38Q263,18.2,267.14,6.79c.08-.22-.64-.13-.72.1-10.37,28.68-21.1,57.24-32.51,85.53-9.17,22.76-18.78,45.36-29.18,67.59-8.26,17.64-17,35.07-26.73,52a346.33,346.33,0,0,1-24.66,37.7,174.82,174.82,0,0,1-23.46,25.62A98.49,98.49,0,0,1,107,290.55a77.83,77.83,0,0,1-22.74,6.64,98.33,98.33,0,0,1-23.57,0A186.31,186.31,0,0,1,36,292.5c-9-2.27-17.95-4.94-26.86-7.61l-6.81-2c-.21-.07-.86.25-.58.33Z"/><path class="cls-1" d="M15.33,266.9c7,2.16,14.05,4.31,21.17,6.14a148.67,148.67,0,0,0,20.71,4,89.48,89.48,0,0,0,20.56,0,77,77,0,0,0,20.91-5.6,97.17,97.17,0,0,0,21.6-12.93,161,161,0,0,0,22.78-22,301.31,301.31,0,0,0,24.45-33.08c9.57-14.76,18.24-30.1,26.4-45.68,10.26-19.58,19.71-39.59,28.7-59.78,11.22-25.21,21.72-50.75,31.78-76.44q4.17-10.66,8.25-21.36c.09-.22-.63-.14-.72.09C251.66,27.12,241,53.86,229.63,80.31c-9.22,21.47-18.89,42.75-29.35,63.65-8.34,16.66-17.17,33.09-26.88,49a356.79,356.79,0,0,1-24.67,35.83,188.44,188.44,0,0,1-23.06,24.69,108.35,108.35,0,0,1-21.78,15.13A78.18,78.18,0,0,1,83,275.89a82,82,0,0,1-20.51,1.16,128.18,128.18,0,0,1-20.52-3.17c-7-1.62-14-3.65-20.87-5.75l-5.14-1.57c-.21-.07-.87.25-.58.34Z"/><path class="cls-1" d="M.07,294.57a369.19,369.19,0,0,0,34.28,14.29,175,175,0,0,0,30.42,8,101.62,101.62,0,0,0,27.59.85,81.37,81.37,0,0,0,25.72-7.38,101.2,101.2,0,0,0,24.21-16.58,173.85,173.85,0,0,0,23.72-27A345.14,345.14,0,0,0,190,228c9-16.59,17-33.67,24.63-50.94,9.43-21.42,18.12-43.16,26.45-65,10.07-26.46,19.58-53.13,28.81-79.89q3.75-10.84,7.42-21.7c.08-.23-.64-.13-.72.1-9.42,27.78-19.09,55.48-29.26,83-8.44,22.82-17.23,45.52-26.67,67.95-7.76,18.41-16,36.65-25,54.45a416.5,416.5,0,0,1-23.89,41.58,207.38,207.38,0,0,1-23.53,29.85,113.52,113.52,0,0,1-24,19.31,81.4,81.4,0,0,1-25.22,9.65,91.42,91.42,0,0,1-27.08,1,150.68,150.68,0,0,1-29.75-6.46A302.52,302.52,0,0,1,9.3,298.19c-2.9-1.29-5.78-2.62-8.65-4-.2-.1-.87.2-.58.34Z"/></g></g></svg>