<svg xmlns="http://www.w3.org/2000/svg" viewBox="0 0 56.58 137.52"><defs>
<style>.cls-1{fill:#1515fc;}.cls-2,.cls-3{fill:#dadbfe;}
.cls-3{font-size:44px;font-family: aktiv-grotesk-thin,sans-serif;font-weight:300;}</style></defs><g id="Layer_2" data-name="Layer 2"><g id="Layer_5" data-name="Layer 5"><ellipse class="cls-1" cx="27.61" cy="42.31" rx="14.41" ry="25.11"/><path id="svg_2" data-name="svg 2" class="cls-2" d="M28.29,0C12.69,0,0,18,0,40.73A61.23,61.23,0,0,0,2.07,56.2H2l.13.37.32,1,25.8,79.93L54,58l.13-.36c.1-.34.23-.68.34-1l.08-.34a57.92,57.92,0,0,0,2.07-15.44C56.58,18,43.89,0,28.29,0Zm0,53.69c-5.46,0-9.89-6.45-9.89-14.4s4.43-14.4,9.89-14.4,9.88,6.45,9.88,14.4S33.75,53.69,28.29,53.69Z"/><path id="svg_2-2" data-name="svg 2" class="cls-1" d="M28.19,4C14.28,4,3,19.74,3,39.56A52.74,52.74,0,0,0,4.8,53.07h0l.11.32.29.88,23,69.77,22.9-69.42.12-.32c.09-.3.2-.59.3-.91l.07-.3a49.16,49.16,0,0,0,1.85-13.47C53.43,19.74,42.11,4,28.19,4Zm0,46.86c-4.87,0-8.82-5.63-8.82-12.57s3.95-12.56,8.82-12.56S37,31.36,37,38.3,33.06,50.87,28.19,50.87Z"/></g><g id="Layer_6" data-name="Layer 6"><path class="cls-2" d="M17.7,3.32A81.77,81.77,0,0,0,8.5,20.49a49.2,49.2,0,0,0-3,16.59A80.56,80.56,0,0,0,8.1,56.55c2.08,8.65,4.9,17.13,7.81,25.54,4.67,13.52,9.68,26.92,14.56,40.37.24.67,2.25.08,2-.55-4.4-12.1-8.88-24.18-13.16-36.33-3.05-8.69-6.05-17.43-8.4-26.34-3.18-12.08-5-24.7-1.16-36.85,2.18-6.85,5.81-13.12,9.81-19,.49-.74-1.53-.54-1.89,0Z"/><path class="cls-2" d="M22.35,2.66C15.79,12.39,9.9,22.85,9.3,34.83a68,68,0,0,0,1.85,18A232.24,232.24,0,0,0,18.3,77.23c4.52,13.35,9.43,26.56,14.23,39.8.11.29,1,0,.87-.23-4.33-12-8.73-23.87-12.89-35.88-2.88-8.32-5.68-16.7-7.78-25.25A77.81,77.81,0,0,1,10.1,36.85,45.58,45.58,0,0,1,13,21.22c2.47-6.63,6.23-12.71,10.17-18.56.22-.31-.65-.23-.8,0Z"/></g><g id="Layer_7" data-name="Layer 7"><text class="cls-3" transform="translate(18.58 60.9)">L</text></g></g></svg>